<svg viewBox="483.9397 314.8672 66.8814 63.9949" width="87.8" height="84" xmlns="http://www.w3.org/2000/svg">
    <svg width="66.9" height="64" x="483.9397" y="314.8672" version="1.1" viewBox="2.5 4.599998950958252 95 90.9000015258789">
        <path fill="#3389e6" d="M37,54.2c8.8,0,17.7-5.4,17.7-17.6c0-6.3-8.8-21.5-14-29.9c-1.7-2.8-5.7-2.8-7.4,0c-5.2,8.4-14,23.7-14,29.9 C19.3,48.8,28.2,54.2,37,54.2z M28.4,31.1c0.2-0.4,0.6-0.7,1-0.7c0.5,0,0.9,0.2,1,0.7c2.7,6.1,6.3,10.4,10.6,12.6 c0.4,0.2,0.6,0.6,0.6,1.1c0,0.4-0.3,0.8-0.8,1c-1.3,0.4-2.7,0.6-3.9,0.6c-3,0-9.9-1-9.9-9.8C27.1,35.3,27.6,33.5,28.4,31.1z" />
        <path fill="#3389e6" d="M94.5,89.5H47.9l36.6-36.6v8.8c0,2.2,1.8,4,4,4s4-1.8,4-4V43.3c0-2.2-1.8-4-4-4H70.1c-2.2,0-4,1.8-4,4c0,2.2,1.8,4,4,4 h8.8L42.6,83.5L15.1,56c-1.5-1.5-4.1-1.5-5.6,0c-1.5,1.5-1.5,4.1,0,5.6l27.9,27.9H5.5c-1.6,0-3,1.3-3,3c0,1.6,1.3,3,3,3h89 c1.6,0,3-1.3,3-3C97.5,90.8,96.2,89.5,94.5,89.5z" />
    </svg>
</svg>
